<?xml version="1.0" encoding="utf-8"?>
<!-- Generator: Adobe Illustrator 23.0.1, SVG Export Plug-In . SVG Version: 6.00 Build 0)  -->
<svg version="1.1" id="_x5F_x3C_x5F__x2014_лой_x5F_x3E_x5F_"
	 xmlns="http://www.w3.org/2000/svg" xmlns:xlink="http://www.w3.org/1999/xlink" x="0px" y="0px" viewBox="0 0 446.53 282.54"
	 style="enable-background:new 0 0 446.53 282.54;" xml:space="preserve">
<style type="text/css">
	.st0{fill:url(#SVGID_1_);}
	.st1{fill:url(#SVGID_2_);}
</style>
<path class="st1" d="M33.88,234.71c0,0.37-0.07,0.69-0.17,0.83c-2.65,0.29-2.63,1.64-2.54,5.59c0.02,0.87,0.04,1.85,0.04,2.98
	c0,0.53,0.26,1.03,0.78,1.47c-6.91,5.83-16.94,6.56-24.44,1.76c-6.44-4.12-8.97-11.23-6.78-19.03c1.75-6.23,6.59-10.91,12.94-12.52
	c1.72-0.44,3.28-0.61,4.69-0.61c3.07,0,5.48,0.82,7.53,1.53c1.39,0.48,2.61,0.89,3.71,0.92c0.29,3.04,0.67,5.71,1.13,7.92
	l-1.57,0.27c-1.4-4.69-3.78-7.27-7.7-8.37c-3.88-1.09-7.46-0.66-10.36,1.23c-2.55,1.67-4.54,4.48-5.61,7.92
	c-2.52,8.13,0.25,18.37,9.25,21.42c4.25,1.44,9.47,0.63,12.14-1.89l0.04-0.04v-0.05c0-1.54,0.02-2.82,0.04-3.95
	c0.11-6.04,0.11-6.17-4.45-6.56c-0.1-0.14-0.17-0.46-0.17-0.83c0-0.36,0.07-0.69,0.17-0.83h11.16
	C33.82,234.03,33.88,234.35,33.88,234.71z M78.52,223.27c3.19,5.59,3.08,13.54-0.28,19.32c-2.92,5.02-7.91,7.79-14.06,7.79
	c-9.54,0-16.46-7.07-16.46-16.82c0-10.75,6.4-16.28,12.39-17.87c1.47-0.39,2.94-0.58,4.38-0.58
	C70.25,215.11,75.57,218.09,78.52,223.27z M75.99,231.55c-0.46-6.37-3.38-11.47-7.83-13.63c-3.53-1.72-6.86-1.64-9.6,0.22
	c-4.09,2.77-6.5,9.19-6.01,16c0.46,6.4,3.36,11.36,7.96,13.59c1.71,0.83,3.37,1.25,4.93,1.25c1.67,0,3.23-0.48,4.64-1.43
	C74.1,244.82,76.48,238.39,75.99,231.55z M118.52,241.19c-1.95,6.99-6.46,6.92-11.22,6.86c-0.46-0.01-0.93-0.01-1.4-0.01
	c-1.58,0-2.61-1.09-2.61-2.77c0-5.1-0.03-9.26-0.05-12.61c-0.1-13.92-0.1-14.75,2.45-15.15c0.74-0.12,1.27-0.11,1.66-0.1
	c0.34,0.01,0.57,0.01,0.67-0.09c0.09-0.09,0.12-0.28,0.12-0.68c0-0.36-0.05-0.61-0.16-0.75c-3.32,0-5.89-0.02-7.77-0.03
	c-4.28-0.03-5.72-0.04-5.96,0.22c-0.05,0.06-0.05,0.15-0.04,0.32c0,0.07,0.01,0.16,0.01,0.25c0,0.4,0.04,0.59,0.12,0.68
	c0.1,0.09,0.32,0.09,0.67,0.09c0.38,0,0.92-0.01,1.66,0.1c1.16,0.18,2.01,1,2.22,2.13c0.22,1.19,0.44,25.51-0.23,27.11
	c-0.7,1.68-2.51,1.7-4.28,1.7c-0.1,0.14-0.17,0.42-0.17,0.73s0.07,0.59,0.17,0.73h24.31c0.57-2.83,1.02-5.69,1.34-8.49
	C119.56,241.19,119.05,241.12,118.52,241.19z M132.83,249.76c-0.07-0.07-0.07-0.2-0.07-0.43v-0.14c0-0.74,0.03-0.74,0.76-0.74
	c0.26,0,0.58,0,1-0.04c3.29-0.29,3.28-1.34,3.15-14.14c-0.03-3.18-0.07-7.14-0.07-12c0-3.86-0.46-4.86-4.67-4.87
	c-0.1-0.14-0.17-0.43-0.17-0.75s0.07-0.62,0.17-0.75c2.87,0,5.29-0.01,7.35-0.02c10.15-0.05,11.71-0.05,15.25,1.44
	c8.43,3.56,12.75,12.32,10.51,21.31c-2.91,11.69-14.28,11.49-23.41,11.33c-1.01-0.02-1.96-0.03-2.88-0.03
	c-1.5,0-2.68,0.01-3.62,0.02C133.88,249.95,133.04,249.96,132.83,249.76z M142.21,247.12l0.11-0.06L142.21,247.12L142.21,247.12
	c0.69,1.06,3.39,1.28,5.54,1.28c8.26,0,11.66-4.01,13.05-7.37c2.66-6.42,0.1-15.77-3.97-19.84c-3.31-3.31-10.16-4.64-13.24-3.36
	c-1.13,0.47-1.73,1.26-1.73,2.27c0,7.42-0.02,12.7-0.03,16.55C141.8,246.49,141.8,246.49,142.21,247.12z M183.86,249.93
	c0.93-0.01,2.12-0.02,3.62-0.02c1.49,0,2.66,0.01,3.59,0.02c2.24,0.02,3.08,0.03,3.28-0.17c0.07-0.07,0.07-0.2,0.07-0.44v-0.14
	c0-0.74-0.03-0.74-0.76-0.74c-0.26,0-0.58,0-1-0.04c-3.25-0.29-3.24-1.1-3.13-14.74c0.02-3.05,0.06-6.84,0.06-11.4
	c0-3.86,0.46-4.86,4.67-4.87c0.1-0.14,0.17-0.43,0.17-0.75s-0.07-0.62-0.17-0.75h-13.6c-0.1,0.14-0.17,0.43-0.17,0.75
	s0.07,0.61,0.17,0.75c4.21,0.01,4.67,1,4.67,4.87c0,4.6,0.03,8.41,0.06,11.48c0.11,13.56,0.12,14.37-3.13,14.66
	c-0.42,0.04-0.74,0.04-1,0.04c-0.73,0-0.76,0-0.76,0.74v0.14c0,0.24,0,0.36,0.07,0.43C180.75,249.96,181.6,249.95,183.86,249.93z
	 M243.32,217.44l0.45-0.04c0.1-0.14,0.17-0.43,0.17-0.76c0-0.32-0.07-0.61-0.17-0.75h-11.68c-0.1,0.14-0.17,0.43-0.17,0.76
	c0,0.32,0.07,0.62,0.17,0.76l0.46,0.05c4.38,0.47,4.38,0.47,4.26,13.55c-0.02,2.57-0.05,5.77-0.05,9.55v0.25c0,0.83,0,1.33-0.3,1.43
	c-0.62,0.22-2.04-1.65-8.87-10.58c-2.9-3.8-6.88-9-12.1-15.75h-7.05c-0.11,0.14-0.16,0.39-0.16,0.75c0,0.76,0.14,0.77,0.61,0.81
	c0.51,0.04,1.28,0.09,2.33,1.06l0.18,0.16c1.39,1.25,1.39,1.25,1.33,12.57c-0.02,3.04-0.04,6.82-0.04,11.67
	c0,4.61-0.83,5.14-4.67,5.52c-0.11,0.14-0.17,0.43-0.17,0.75s0.07,0.6,0.17,0.73h11.68c0.1-0.14,0.17-0.43,0.17-0.74
	c0-0.32-0.07-0.61-0.17-0.74c-3.27-0.31-3.73-0.75-4.27-2.01c-0.64-1.46-0.47-20.68-0.32-21.75c0.05-0.37,0.18-0.58,0.38-0.63
	c0.03-0.01,0.07-0.01,0.1-0.01c0.41,0,0.95,0.59,1.89,1.78c4.65,5.88,8.23,10.43,10.85,13.76c8.44,10.73,8.53,10.84,9.55,10.82H238
	c1.01,0,1.09-1.15,1.09-1.5c0-6.16-0.05-11.09-0.1-15.04C238.83,217.86,238.83,217.86,243.32,217.44z M290.28,233.89h-11.16
	c-0.1,0.14-0.17,0.47-0.17,0.83c0,0.37,0.07,0.69,0.17,0.83c4.63,0.39,4.62,0.73,4.48,6.23c-0.03,1.15-0.07,2.58-0.07,4.27v0.05
	l-0.04,0.04c-2.68,2.52-7.89,3.33-12.14,1.89c-9-3.06-11.77-13.29-9.25-21.42c1.07-3.44,3.06-6.25,5.61-7.92
	c2.9-1.89,6.48-2.32,10.36-1.23c3.92,1.1,6.3,3.68,7.7,8.37l1.57-0.27c-0.46-2.22-0.84-4.88-1.13-7.92
	c-1.11-0.03-2.32-0.44-3.71-0.92c-2.06-0.71-4.46-1.53-7.53-1.53c-1.41,0-2.96,0.17-4.69,0.61c-6.35,1.61-11.18,6.3-12.94,12.52
	c-2.2,7.8,0.34,14.91,6.78,19.03c7.5,4.79,17.53,4.07,24.44-1.76c-0.52-0.44-0.78-0.94-0.78-1.47c0-1.14-0.02-2.12-0.04-2.98
	c-0.09-3.95-0.12-5.29,2.54-5.59c0.1-0.14,0.17-0.47,0.17-0.83C290.45,234.35,290.38,234.03,290.28,233.89z M340.81,241.19
	c-1.32,4.73-4.02,6.84-8.74,6.84c-0.71,0-1.35,0.02-1.91,0.04c-1.84,0.06-2.96,0.09-3.68-0.62c-1.18-1.16-1.13-4.24-1.01-12.48
	c0.05-3.34,0.11-7.5,0.11-12.73c0-4.12,0.7-4.86,4.67-4.86c0.1-0.14,0.17-0.43,0.17-0.75s-0.07-0.61-0.17-0.75
	c-3.32,0-5.89-0.02-7.77-0.03c-4.28-0.03-5.72-0.04-5.96,0.22c-0.05,0.06-0.05,0.15-0.04,0.32c0,0.07,0.01,0.16,0.01,0.25
	c0,0.4,0.04,0.59,0.12,0.68c0.1,0.09,0.32,0.09,0.67,0.09c0.39,0,0.92-0.01,1.66,0.1c1.16,0.18,2.01,1,2.22,2.13
	c0.22,1.19,0.44,25.51-0.23,27.11c-0.7,1.68-2.51,1.7-4.28,1.7c-0.1,0.14-0.17,0.42-0.17,0.73s0.07,0.59,0.17,0.73h24.31
	c0.57-2.83,1.02-5.69,1.34-8.49C341.85,241.19,341.34,241.12,340.81,241.19z M358.43,249.93c0.93-0.01,2.12-0.02,3.62-0.02
	c1.49,0,2.66,0.01,3.59,0.02c2.24,0.02,3.08,0.03,3.28-0.17c0.07-0.07,0.07-0.2,0.07-0.44v-0.14c0-0.74-0.03-0.74-0.76-0.74
	c-0.26,0-0.58,0-1-0.04c-3.25-0.29-3.24-1.1-3.13-14.74c0.02-3.05,0.06-6.84,0.06-11.4c0-3.86,0.46-4.86,4.67-4.87
	c0.1-0.14,0.17-0.43,0.17-0.75s-0.07-0.62-0.17-0.75h-13.6c-0.1,0.14-0.17,0.43-0.17,0.75s0.07,0.61,0.17,0.75
	c4.21,0.01,4.67,1,4.67,4.87c0,4.6,0.03,8.41,0.06,11.48c0.11,13.56,0.12,14.37-3.13,14.66c-0.42,0.04-0.74,0.04-1,0.04
	c-0.73,0-0.76,0-0.76,0.74v0.14c0,0.24,0,0.36,0.07,0.43C355.33,249.96,356.18,249.95,358.43,249.93z M405.1,215.73
	c-1.1,0.16-1.21,0.16-11.41,0.15c-2.89,0-6.6,0-11.37,0c-0.11,0.14-0.16,0.39-0.16,0.74c0,0.75,0.06,0.75,0.74,0.75
	c0.31,0,0.74,0,1.3,0.08c1.92,0.27,2.82,0.84,2.82,4.8c0,4.4,0.03,8.11,0.05,11.08c0.1,13.94,0.11,14.77-3.15,15.06
	c-0.42,0.04-0.74,0.04-1,0.04c-0.72,0-0.76,0-0.76,0.74c0,0.08,0,0.16-0.01,0.23c-0.01,0.17-0.01,0.26,0.04,0.32
	c0.24,0.25,1.65,0.24,5.83,0.21c1.91-0.01,4.52-0.03,7.93-0.03c0.1-0.14,0.17-0.42,0.17-0.73s-0.07-0.59-0.17-0.73
	c-1.92,0-3.02-0.14-3.71-0.83c-1.09-1.1-1.06-3.48-1-9.23c0.02-1.6,0.04-3.41,0.04-5.54v-0.13h0.13c0.65,0,1.26,0,1.82,0
	c6.75-0.02,7.82-0.03,8.05,3.69c0.3,0.23,1.18,0.23,1.48,0l-0.01-0.27c-0.12-4.12-0.13-4.67,0.01-8.85
	c-0.14-0.11-0.39-0.16-0.74-0.16c-0.65,0-0.74,0.45-0.83,1.25c-0.13,1.08-0.31,2.55-2.96,2.55h-6.95v-0.13
	c0-2.43-0.04-4.42-0.07-6.02c-0.08-4.09-0.11-5.78,0.64-6.53c0.56-0.56,1.55-0.53,3.17-0.49c0.51,0.01,1.09,0.03,1.74,0.03
	c5.36,0,6.93,1.86,8.19,5.77c0.53-0.01,1-0.08,1.4-0.22l-0.01-0.06C405.69,218.15,405.28,216.03,405.1,215.73z M429.71,249.95
	c3.55-0.02,8.42-0.04,14.9-0.04c0.85-2.99,1.5-5.88,1.92-8.6c-0.53-0.28-1.07-0.35-1.63-0.22c-2.04,7.21-5.13,7.14-11.28,7
	c-0.94-0.02-1.91-0.04-2.97-0.04c-0.64,0-1.04-0.13-1.33-0.42c-0.79-0.8-0.77-2.89-0.72-8.46c0.02-1.7,0.04-3.82,0.04-6.3v-0.13
	h0.13c0.62,0,1.21,0,1.75,0c6.71-0.02,7.76-0.02,7.99,3.69c0.3,0.23,1.21,0.23,1.51,0l-0.01-0.27c-0.12-4.12-0.13-4.67,0.01-8.85
	c-0.14-0.11-0.4-0.16-0.75-0.16c-0.76,0-0.76,0.04-0.8,0.73c-0.01,0.19-0.02,0.42-0.06,0.71c-0.28,2.46-1.49,2.45-6.57,2.39
	c-0.9-0.01-1.91-0.02-3.07-0.02h-0.13v-0.13c0-2.16-0.03-3.99-0.06-5.47c-0.07-4.23-0.11-6.15,0.75-7c0.7-0.69,1.92-0.65,4.15-0.59
	c0.8,0.02,1.7,0.05,2.76,0.05c3.83,0,4.85,1.85,6.07,5.78c0.54,0.08,1.05,0,1.53-0.22c-0.16-1.23-0.93-6.51-1.15-7.48h-23
	c-0.11,0.14-0.16,0.39-0.16,0.74c0,0.75,0.06,0.75,0.74,0.75c0.31,0,0.74,0,1.3,0.08c1.92,0.27,2.82,0.84,2.82,4.8
	c0,4.4,0.03,8.11,0.05,11.08c0.1,13.94,0.11,14.77-3.15,15.06c-0.42,0.04-0.74,0.04-1,0.04c-0.72,0-0.76,0-0.76,0.74
	c0,0.1-0.01,0.18-0.02,0.26c-0.02,0.13-0.03,0.2,0.01,0.24C419.78,249.99,421.89,249.98,429.71,249.95z"/>
<g>
	
		<linearGradient id="SVGID_1_" gradientUnits="userSpaceOnUse" x1="134.8878" y1="443.7142" x2="347.7477" y2="511.3375" gradientTransform="matrix(1 0 0 -1 2.0002 749.06)">
		<stop  offset="0" style="stop-color:#FFDF73"/>
		<stop  offset="0.0573" style="stop-color:#F2C861"/>
		<stop  offset="0.1272" style="stop-color:#E9B250"/>
		<stop  offset="0.2061" style="stop-color:#E4A649"/>
		<stop  offset="0.2814" style="stop-color:#E29F46"/>
		<stop  offset="0.3566" style="stop-color:#E3A147"/>
		<stop  offset="0.457" style="stop-color:#E8AC4D"/>
		<stop  offset="0.6004" style="stop-color:#F4CB63"/>
		<stop  offset="0.69" style="stop-color:#FFE177"/>
		<stop  offset="0.7545" style="stop-color:#FFE884"/>
		<stop  offset="0.8118" style="stop-color:#FFE884"/>
		<stop  offset="0.9158" style="stop-color:#FFE172"/>
		<stop  offset="0.9427" style="stop-color:#FDDE6E"/>
		<stop  offset="0.967" style="stop-color:#F7D363"/>
		<stop  offset="0.9902" style="stop-color:#EDC151"/>
		<stop  offset="1" style="stop-color:#E8B747"/>
	</linearGradient>
	<path class="st0" d="M192.93,282.68c-6.85,0-6.26-10.52-0.09-10.52C199.74,272.16,199.48,282.68,192.93,282.68z M191.85,281.83
		c4.73,2.3,6.31-6.82,2.25-8.79C189.41,270.76,187.68,279.8,191.85,281.83z M209.01,272.88c-0.75-0.75,1.45-0.52,3.51-0.52
		c0.09,0.09,0.09,0.43,0,0.52c-1.75,0.17-1.37-0.26-1.37,9.32c0,2.75-6.96-8.37-7.13-7.19c-0.05,0.32-0.1,6,0.09,6.45
		c0.22,0.49,0.68,0.52,1.25,0.58c0.73,0.73-1.41,0.51-3.51,0.51c-0.09-0.09-0.09-0.42,0-0.51c1.11-0.11,1.37-0.22,1.37-1.6
		c0-5.65,0.48-7.55-1.25-7.55c-0.09-0.09-0.09-0.43,0-0.52h2.13c6.51,8.41,6.27,8.37,6.27,7.37
		C210.37,272.76,210.61,273.06,209.01,272.88z M216.42,282.04c0.52,0,1.05,0,1.25-0.48c0.22-0.52,0.13-7.69,0.07-8.04
		c-0.07-0.36-0.33-0.56-0.63-0.6c-0.47-0.07-0.76,0.08-0.76-0.3c0-0.13,0.02-0.22,0.07-0.26c0.4,0,3.68,0,4.08,0
		c0.05,0.05,0.07,0.13,0.07,0.26c0,0.38-0.29,0.22-0.76,0.3c-1,0.16-0.68,1.1-0.68,8.22c0,0.47,0.27,0.79,0.74,0.79
		c1.58,0,3.09,0.24,3.72-2.03c0.18-0.03,0.36-0.01,0.51,0.08c-0.1,0.86-0.23,1.72-0.41,2.58
		C218.91,282.54,215.53,282.89,216.42,282.04z M230.85,281.81c0.39,0.4,1.17,0,1.17,0.48c0,0.12-0.02,0.21-0.07,0.25
		c-0.4,0-3.68,0-4.08,0c-0.05-0.05-0.07-0.13-0.07-0.25c0-0.48,0.77-0.09,1.17-0.48c0.42-0.42,0.27-1.4,0.27-7.52
		c0-1.18-0.16-1.41-1.37-1.41c-0.78-0.79,1.51-0.52,4.08-0.52c0.09,0.09,0.09,0.43,0,0.52c-1.2,0-1.37,0.23-1.37,1.41
		C230.59,280.42,230.43,281.38,230.85,281.81z M243.17,272.88c-0.75-0.75,1.45-0.52,3.51-0.52c0.09,0.09,0.09,0.43,0,0.52
		c-1.75,0.17-1.37-0.26-1.37,9.32c0,2.75-6.96-8.37-7.13-7.19c-0.05,0.32-0.1,6,0.09,6.45c0.22,0.49,0.68,0.52,1.25,0.58
		c0.73,0.73-1.41,0.51-3.51,0.51c-0.09-0.09-0.09-0.42,0-0.51c1.11-0.11,1.37-0.22,1.37-1.6c0-5.65,0.48-7.55-1.25-7.55
		c-0.09-0.09-0.09-0.43,0-0.52h2.13c6.51,8.41,6.27,8.37,6.27,7.37C244.54,272.76,244.78,273.06,243.17,272.88z M255.81,276.65
		c0.42-0.31-0.05-0.95,0.49-0.95c0.13,0,0.22,0.02,0.26,0.07c-0.04,1.32-0.04,1.39,0,2.75c-0.09,0.09-0.43,0.09-0.52,0
		c-0.07-1.19-0.42-1.08-2.86-1.08c0,2.98-0.35,4.48,0.56,4.48c2.27,0,3.5,0.48,4.21-2.06c0.19-0.05,0.38-0.03,0.55,0.08
		c-0.13,0.83-0.32,1.7-0.58,2.61c-2.42,0-4.57,0-7.45,0c-0.05-0.05-0.07-0.13-0.07-0.25c0-0.34,0.14-0.23,0.56-0.27
		c0.53-0.05,0.8-0.25,0.86-0.85c0.05-0.48,0.13-7.37-0.14-7.94c-0.3-0.6-1.28-0.09-1.28-0.62c0-0.13,0.02-0.21,0.07-0.26
		c0.02,0,6.88,0,6.88,0c0.06,0.21,0.33,2.06,0.35,2.28c-0.16,0.08-0.34,0.11-0.52,0.08c-0.18-0.59-0.37-1.17-0.87-1.51
		c-0.51-0.34-2.79-0.27-2.99-0.01c-0.24,0.32-0.15,3.23-0.15,3.63C253.67,276.83,255.45,276.92,255.81,276.65z"/>
</g>
<g>
	
		<linearGradient id="SVGID_2_" gradientUnits="userSpaceOnUse" x1="49.2069" y1="659.2554" x2="309.7315" y2="655.1846" gradientTransform="matrix(1 0 0 -1 2.0002 749.06)">
		<stop  offset="0" style="stop-color:#CFAA27"/>
		<stop  offset="0.0154" style="stop-color:#DABC39"/>
		<stop  offset="0.0369" style="stop-color:#E4CE4B"/>
		<stop  offset="0.0593" style="stop-color:#EBD955"/>
		<stop  offset="0.0842" style="stop-color:#EDDD59"/>
		<stop  offset="0.1882" style="stop-color:#F4E86D"/>
		<stop  offset="0.2455" style="stop-color:#F4E86D"/>
		<stop  offset="0.31" style="stop-color:#EDDC60"/>
		<stop  offset="0.3996" style="stop-color:#E0C249"/>
		<stop  offset="0.543" style="stop-color:#CF9F2E"/>
		<stop  offset="0.6434" style="stop-color:#C99226"/>
		<stop  offset="0.7186" style="stop-color:#C89025"/>
		<stop  offset="0.7939" style="stop-color:#CA9729"/>
		<stop  offset="0.8728" style="stop-color:#D1A531"/>
		<stop  offset="0.9427" style="stop-color:#DDBE46"/>
		<stop  offset="1" style="stop-color:#EBD95C"/>
	</linearGradient>
	<path class="st1" d="M201.14,145.64c-21.5,19.84-46.5,15.92-40.61,3.27c6.45-10.67,27.48-13.56,40.35-13.99
		c-0.52,1.29-1.36,2.83-2.04,4c-10.85,0.56-18.87,2.04-27.51,7.57c-22.69,14.56,28.33,15.32,39.51-29.12
		c-28.38,23.89-54.35,3.93-40.09-27.98c-3.83-4.13-5.43-8.64-5.02-13.1c-9.3,12.24-14.62,26.53-15.24,40.75
		c-4.84-63.88,68.3-102.25,118.1-63.86c-28.22-17.29-68.07-11.68-94.43,13.66c-4.94,4.75-6.03,11.91-1.24,18.36
		c9.34-16.7,26.55-23.81,39.33-21.92c22.1,3.43,21.27,27-2.2,33.54c-9.52,2.7-21.66,2.34-30.66-2.13c0.44-1.08,1.01-2.34,1.66-3.55
		c1.7,0.93,3.56,1.64,5.56,2.13c29.23,7.13,47.68-19.31,28.83-25.16c-10.27-3.24-27.62,2.74-38.26,25.38
		c-0.02-0.01-0.04-0.02-0.05-0.03c0,0.01-0.56,1.33-0.56,1.33c-6.6,16.42-1.52,32.27,16.57,27.75c6.44-1.7,13.72-5.94,15.38-9.83
		c4.36-10.15,9.77-9.04,10.96-5.27c2.15,5.56-6.65,21.89-9.94,27.42l3.18-0.05c-0.64,1.9-2.95,3.87-5.39,3.87
		C205.5,141.54,201.27,145.61,201.14,145.64z M297.17,107.58c-0.67,13.61-5.58,26.65-13.2,37.6c-5.05,7.69-12.67,5.71-20.08,2.25
		c-2.01-0.94-19.88-11.02-20.79-9.55c2.02-3.28,8.39-18.32,11.61-25.22c36.21-77.59,40.04-19.34,5.25-6.82
		c-0.67,1.61-1.16,3.11-1.5,4.35c17.98-4.72,29.48-21.42,30.58-32.53c0.85-8.55-6.62-13.62-15.62-8.05
		c-10.33,6.39-15.32,22.89-21.3,37.93c-11.46,1.16-16.1-4.19-16.15-10.26c2.17-5.03-6.34-1.47-4.4,3.86
		c2.61,5.54,9.25,9.92,18.65,10.09c-5.37,10.87-9.75,23.33-15.53,30.89c-7.43,9.99-17.39,14.06-23.35,10.6
		c-6.63-3.84,5.56-12.56,20.71-10.97c1.3-1.59,2.8-3.59,3.71-5.36c-13.59-1.44-29.69,3.5-29.69,12.61c0,9.67,17.42,16.29,33.64-6.02
		c2.07-2.83,26.99,11.52,36.37,11.82c-22.36,23.4-58.21,33.34-88.37,20.65C237.77,203.71,300.16,165.74,297.17,107.58z
		 M266.15,33.12c0,0.64,0.24,1.22,0.63,1.67c-2.49,2.06-6.27,5.15-9.45,4.54c-4.81-2.35-4.7-13.51-4.43-18.86
		c4.42,0.25,4.53-6.39,0.19-6.39c-3.35,0-4.46,4.53-1.44,6.06c-15.46,31.21-24.75,5.12-26.44-12.56c4.43-1.05,3.64-7.58-0.88-7.58
		c-4.41,0-5.34,6.28-1.07,7.52c-1.66,17.37-10.84,44.15-26.45,12.62c3.01-1.53,1.91-6.06-1.44-6.06c-4.34,0-4.2,6.66,0.19,6.39
		c0.27,5.36,0.38,16.51-4.43,18.86c-3.16,0.61-6.89-2.42-9.45-4.54c1.44-1.67,0.24-4.23-1.93-4.23c-4.38,0-2.5,7.17,1.37,4.73
		c9.72,13.66,19.32,4.47,16.19-11.65c10.67,28.17,28.72,8.94,26.45-16.02c0.63,0.09,0.56,0.06,0.94,0.02
		c-2.22,24.12,15.58,44.73,26.46,16c-3.05,15.69,6.3,25.53,16.19,11.65c1.72,1.09,3.93-0.16,3.93-2.16
		C271.28,29.73,266.15,29.72,266.15,33.12z"/>
</g>
</svg>
