<?xml version="1.0" encoding="utf-8"?>
<!-- Generator: Adobe Illustrator 21.0.0, SVG Export Plug-In . SVG Version: 6.00 Build 0)  -->
<svg version="1.1" id="Layer_1" xmlns="http://www.w3.org/2000/svg" xmlns:xlink="http://www.w3.org/1999/xlink" x="0px" y="0px"
	 width="190.4px" height="190.4px" viewBox="0 0 190.4 190.4" style="enable-background:new 0 0 190.4 190.4;" xml:space="preserve"
	>
<style type="text/css">
	.st0{fill:url(#SVGID_1_);}
	.st1{fill:url(#SVGID_2_);}
	.st2{fill:url(#SVGID_3_);}
	.st3{fill:url(#SVGID_4_);}
	.st4{fill:url(#SVGID_5_);}
	.st5{fill:url(#SVGID_6_);}
	.st6{fill:url(#SVGID_7_);}
</style>
<radialGradient id="SVGID_1_" cx="134.3782" cy="32.0047" r="203.3446" gradientUnits="userSpaceOnUse">
	<stop  offset="0.149" style="stop-color:#5E1400"/>
	<stop  offset="0.4973" style="stop-color:#450F00"/>
	<stop  offset="1" style="stop-color:#250800"/>
</radialGradient>
<path class="st0" d="M95.2,0.7C43,0.7,0.7,43,0.7,95.2c0,52.2,42.3,94.5,94.5,94.5c52.2,0,94.5-42.3,94.5-94.5
	C189.7,43,147.4,0.7,95.2,0.7L95.2,0.7z"/>
<g>
	<linearGradient id="SVGID_2_" gradientUnits="userSpaceOnUse" x1="157.8443" y1="19.3782" x2="29.2223" y2="175.0468">
		<stop  offset="0" style="stop-color:#F4DE8B"/>
		<stop  offset="0.4624" style="stop-color:#CFAD56"/>
		<stop  offset="1" style="stop-color:#A1812E"/>
	</linearGradient>
	<path class="st1" d="M95.2,0C42.6,0,0,42.6,0,95.2s42.6,95.2,95.2,95.2c52.6,0,95.2-42.6,95.2-95.2S147.8,0,95.2,0z M95.2,182.2
		c-48,0-87-39-87-87c0-48,39-87,87-87c48,0,87,39,87,87C182.2,143.2,143.2,182.2,95.2,182.2z"/>
	<linearGradient id="SVGID_3_" gradientUnits="userSpaceOnUse" x1="155.985" y1="21.93" x2="89.2833" y2="102.6577">
		<stop  offset="0" style="stop-color:#F4DE8B"/>
		<stop  offset="0.4624" style="stop-color:#CFAD56"/>
		<stop  offset="1" style="stop-color:#A1812E"/>
	</linearGradient>
	<path class="st2" d="M95.2,0C68.7,0,44.8,10.8,27.5,28.2c17.2-17,40.8-27.5,66.9-27.5c52.6,0,95.2,42.6,95.2,95.2
		c0,26.1-10.5,49.7-27.5,66.9c17.4-17.3,28.2-41.2,28.2-67.7C190.4,42.6,147.8,0,95.2,0z"/>
	<linearGradient id="SVGID_4_" gradientUnits="userSpaceOnUse" x1="100.0355" y1="88.9449" x2="39.0007" y2="162.8141">
		<stop  offset="0" style="stop-color:#F4DE8B"/>
		<stop  offset="0.4624" style="stop-color:#CFAD56"/>
		<stop  offset="1" style="stop-color:#A1812E"/>
	</linearGradient>
	<path class="st3" d="M8.1,95.1c0-23.9,9.6-45.5,25.2-61.2C17.4,49.7,7.5,71.6,7.5,95.8c0,48,39.1,87.1,87.1,87.1
		c24.2,0,46.1-9.9,61.9-25.9c-15.8,15.6-37.4,25.2-61.2,25.2C47.2,182.3,8.1,143.2,8.1,95.1z"/>
</g>
<g>
	<linearGradient id="SVGID_5_" gradientUnits="userSpaceOnUse" x1="139.6179" y1="41.4374" x2="48.4175" y2="151.8153">
		<stop  offset="0" style="stop-color:#F4DE8B"/>
		<stop  offset="0.4624" style="stop-color:#CFAD56"/>
		<stop  offset="1" style="stop-color:#A1812E"/>
	</linearGradient>
	<path class="st4" d="M95.2,27.7c-37.3,0-67.5,30.2-67.5,67.5s30.2,67.5,67.5,67.5c37.3,0,67.5-30.2,67.5-67.5S132.5,27.7,95.2,27.7
		z M95.2,161.2c-36.4,0-66-29.6-66-66c0-36.4,29.6-66,66-66c36.4,0,66,29.6,66,66C161.2,131.6,131.6,161.2,95.2,161.2z"/>
	<g>
		<linearGradient id="SVGID_6_" gradientUnits="userSpaceOnUse" x1="138.2995" y1="43.2467" x2="91.0042" y2="100.4873">
			<stop  offset="0" style="stop-color:#F4DE8B"/>
			<stop  offset="0.4624" style="stop-color:#CFAD56"/>
			<stop  offset="1" style="stop-color:#A1812E"/>
		</linearGradient>
		<path class="st5" d="M95.2,27.7c-18.8,0-35.7,7.7-48,20c12.2-12.1,29-19.5,47.5-19.5c37.3,0,67.5,30.2,67.5,67.5
			c0,18.5-7.5,35.3-19.5,47.5c12.4-12.2,20-29.2,20-48C162.7,57.9,132.5,27.7,95.2,27.7z"/>
		<linearGradient id="SVGID_7_" gradientUnits="userSpaceOnUse" x1="98.7975" y1="90.5258" x2="52.5469" y2="146.502">
			<stop  offset="0" style="stop-color:#F4DE8B"/>
			<stop  offset="0.4624" style="stop-color:#CFAD56"/>
			<stop  offset="1" style="stop-color:#A1812E"/>
		</linearGradient>
		<path class="st6" d="M29.2,95.2c0-18.1,7.3-34.5,19.1-46.4c-12.1,12-19.6,28.6-19.6,46.9c0,36.4,29.6,66,66,66
			c18.3,0,34.9-7.5,46.9-19.6c-11.9,11.8-28.3,19.1-46.4,19.1C58.8,161.2,29.2,131.6,29.2,95.2z"/>
	</g>
</g>
</svg>
