<?xml version="1.0" encoding="utf-8"?>
<!-- Generator: Adobe Illustrator 21.0.0, SVG Export Plug-In . SVG Version: 6.00 Build 0)  -->
<svg version="1.1" id="Design" xmlns="http://www.w3.org/2000/svg" xmlns:xlink="http://www.w3.org/1999/xlink" x="0px" y="0px"
	 width="288px" height="86.6px" viewBox="0 0 288 86.6" style="enable-background:new 0 0 288 86.6;" xml:space="preserve">
<style type="text/css">
	.st0{fill:#F4DE8B;}
</style>
<g>
	<g>
		<path class="st0" d="M2.8,52c0,0,0.7,0.3,2,0.9c1.3,0.6,3.4,1.5,6,2.5c5.3,1.9,13.5,4.4,24.3,4.6c5.3,0.1,11.3-0.5,17.6-1.9
			s12.9-3.7,19.6-6.8c6.6-3.1,13.6-6.5,21-9.9c7.4-3.3,15.3-6.7,23.8-8.8c4.3-1,8.7-1.7,13.2-1.6c2.2,0,4.5,0.3,6.7,0.8
			s4.3,1.3,6.4,2.3c4,2.1,7.7,5.3,10.4,9.1c1.3,1.9,2.3,4.1,2.6,6.3s0,4.5-1,6.6c-2,4.1-6.6,6.9-11.4,7.2c-4.8,0.4-9.7-1.7-13.1-5.5
			c-3.5-3.6-4.7-8.9-3.3-13.9c1.3-5,4.6-9.4,8.9-12.5c4.3-3.1,9.6-5,15.1-5.7c2.7-0.3,5.5-0.4,8.3-0.2c2.8,0.2,5.6,0.5,8.3,1.2
			c2.8,0.6,5.5,1.4,8.2,2.3c1.4,0.5,2.7,0.9,4.1,1.4l4,1.6l2,0.8l1.9,0.9c1.3,0.6,2.6,1.2,3.9,1.9c2.5,1.4,5.1,2.8,7.5,4.4
			c4.9,3.2,9.5,6.8,14.3,10.4c4.7,3.6,9.7,7.1,15.1,9.7c5.5,2.7,11.3,4.4,17.3,5.5c3,0.4,6,0.9,9,1c3,0.1,6.1,0,9.1-0.6
			s6-1.6,8.6-3.2c2.7-1.6,5-3.8,6.8-6.3c3.6-5.1,4.9-11.5,4.4-17.5c-0.5-6.1-2.8-12-6.9-16.6c-2-2.3-4.6-4.1-7.4-5.3
			c-2.8-1.2-5.8-1.9-8.8-1.9c-16,1.2-19.1,15.2-15.1,24.6c2.9,6.7,10.3,10.4,15.4,8.2c2.4-1,3.6-3.1,3.9-4.7
			c0.3-1.6-0.3-2.7-0.7-3.2c-0.2-0.3-0.5-0.4-0.6-0.5c-0.2-0.1-0.3-0.1-0.3-0.1c-0.8-0.2-1-0.3-1.1-0.9c-0.1-0.6-0.2-1.7-0.2-3.1
			c0.1-1.4,0.4-2.8,1.3-3.8s2.4-1.7,4.3-1.1c1.3,0.4,2.5,1.3,3.4,2.5c0,0,0.2,0.2,0.4,0.6c0.2,0.3,0.5,0.8,0.7,1.3s0.4,1,0.5,1.4
			s0.2,0.6,0.2,0.6c1.1,4.1-0.1,8.2-2.3,11.2c-2.2,3-5.5,5.1-9,5.8c-3.6,0.7-7.1,0-10-1.3c-2.9-1.4-5.2-3.1-7.4-5.4
			c-4.3-4.6-6-11.4-4.8-17.4c0.5-3,1.7-5.8,3.3-8.3s3.8-4.7,6.2-6.6c2.6-1.7,5.5-2.8,8.5-3.3c3-0.5,6-0.3,8.8,0.4
			c0.7,0.2,1.4,0.3,2.1,0.5l2,0.7l2,0.9c0.7,0.3,1.3,0.7,1.9,1.1c2.5,1.6,4.7,3.6,6.5,5.8c3.6,4.5,5.7,9.8,6.5,15.3
			s0.4,11.2-1.8,16.5c-2,5.3-6,10-11,13c-5,2.9-10.6,4.2-15.9,4.3c-2.7,0.1-5.3-0.1-7.9-0.4l-3.8-0.5l-1.9-0.3
			c-0.6-0.1-1.2-0.3-1.9-0.4l-3.7-0.9c-1.2-0.3-2.5-0.8-3.7-1.1c-2.5-0.7-4.8-1.8-7.2-2.8c-4.6-2.2-9-5-13-7.9s-7.8-6-11.6-8.8
			c-7.5-5.7-15.5-10.4-24.2-13.7c-4.4-1.6-8.8-3.2-13.2-4.1c-4.4-0.9-9-1.4-13.4-1c-2.2,0.1-4.4,0.5-6.5,1.1s-4.1,1.3-6,2.3
			c-3.8,2-7.1,4.8-9.3,8.2s-3.2,7.6-2.4,11.2c0.4,1.8,1.2,3.5,2.4,5s2.8,2.9,4.5,3.8c3.4,1.9,7.5,2.4,11.1,1
			c3.6-1.3,6.5-4.3,7.1-7.7c0.7-3.5-0.9-7.3-3.7-10.6s-6.3-6-10.3-7.6c-3.9-1.7-8.4-2.2-12.8-2.1c-4.5,0.2-9,1.1-13.5,2.4
			c-9,2.6-17.7,6.5-26.5,10.5L74.5,52c-2.2,1-4.5,2-6.8,3c-1.1,0.5-2.3,0.9-3.5,1.3c-1.2,0.4-2.3,0.9-3.5,1.2
			c-4.8,1.5-9.6,2.7-14.6,3.3s-10,0.8-15,0.5c-10-0.8-19.8-3.7-28.7-8H2.3c-1.4-0.7-2.5-1.5-2.3-1.8C0.1,51,1.4,51.3,2.8,52z"/>
	</g>
	<g>
		<path class="st0" d="M58.9,31.1c0.1-0.2,0.9-0.2,1.6,0.4c0,0,0.7,0.4,1.6,1.5c0.9,1.1,1.8,3,1.4,5.5c-0.1,1.2-0.6,2.5-1.3,3.8
			s-1.8,2.5-3.3,3.4c-1.4,0.9-3.3,1.4-5.2,1.1c-1.9-0.3-3.8-1.3-5.2-2.6c-0.7-0.8-1.5-1.4-2.1-2.3c-0.3-0.4-0.6-0.9-0.9-1.3
			c-0.2-0.5-0.4-1-0.7-1.5c-0.8-2.1-1-4.4-0.5-6.7c1-4.6,4.8-8.7,9.6-10.2c2.4-0.7,5.1-0.9,7.6-0.5c2.6,0.4,5,1.6,7.1,3.3
			c4.1,3.4,6.7,8.6,6.7,14c0,2.7-0.7,5.4-1.9,7.7c-1.2,2.4-3,4.4-5,6.1c-4.1,3.3-9,5.2-13.8,6.4c-2.4,0.7-4.8,1.1-7.1,1.6
			c-2.4,0.3-4.7,0.7-6.9,0.8c-4.5,0.3-8.8,0.2-12.8-0.3c-3.9-0.4-7.5-1.2-10.6-2s-5.7-1.8-7.9-2.7c-4.3-1.8-6.5-3.2-6.5-3.2
			s0.6,0.3,1.7,0.9c1.1,0.6,2.7,1.3,4.9,2.2c2.1,0.8,4.8,1.8,7.9,2.6s6.7,1.6,10.6,2s8.2,0.6,12.7,0.2c2.3-0.1,4.6-0.5,6.9-0.8
			c2.3-0.5,4.7-0.9,7.1-1.6c4.8-1.2,9.6-3.1,13.6-6.4c2-1.6,3.7-3.6,4.9-5.9c1.2-2.3,1.8-4.9,1.8-7.5c0-5.2-2.6-10.3-6.5-13.5
			c-2-1.6-4.3-2.7-6.8-3.1c-2.5-0.3-5-0.2-7.3,0.5c-4.6,1.5-8.2,5.4-9.1,9.7c-0.4,2.2-0.2,4.4,0.5,6.3c0.2,0.5,0.4,0.9,0.6,1.4
			c0.2,0.5,0.6,0.8,0.8,1.3c0.5,0.9,1.3,1.5,2,2.2c1.4,1.3,3.1,2.2,4.8,2.4s3.4-0.2,4.6-1c1.3-0.8,2.3-1.9,3-3.1
			c0.7-1.2,1.1-2.4,1.2-3.5c0.3-2.2-0.5-3.9-1.2-4.8c-0.8-0.9-1.4-1.2-1.4-1.3C59.3,31.8,58.7,31.4,58.9,31.1z"/>
	</g>
	<g>
		<path class="st0" d="M100.5,23c0-0.9-0.3-1.9-0.8-2.6c-0.2-0.3-0.5-0.6-0.8-0.8c-0.3-0.2-0.6-0.4-0.9-0.4c-0.2,0-0.5,0-0.7,0
			s-0.4,0-0.6,0.1c-0.4,0.1-0.9,0.3-1.3,0.4s-1,0.3-1.5,0.3c-0.5-0.1-1.2-0.1-1.8-0.6c-0.1-0.1-0.6-0.6-1.1-1.8
			c-0.4-1.2-0.8-3-0.3-5.3c0.4-2.2,1.7-4.9,4.2-7c1.3-1,2.8-1.8,4.6-2.3c1.8-0.4,3.7-0.5,5.7-0.2c3.9,0.6,7.8,3.3,10.2,7.2
			c1.2,2,1.9,4.3,2.2,6.7c0.3,2.4,0,4.9-0.5,7.3c-1.2,4.9-3.5,9.5-6.7,13.7c-3.2,4.2-7.1,7.9-11.5,10.9c-4.4,3.1-9.2,5.7-14.2,7.6
			c-9.9,4-20.4,6-30.1,7c-9.7,1-18.9,0.5-26.5-0.7c-7.7-1.2-13.7-3.5-17.8-5.3c-2-0.9-3.6-1.7-4.7-2.2s-1.5-0.7-1.5-0.7
			s0.4,0.2,1.3,0.8c0.9,0.5,2.3,1.3,4.2,2.2c3.7,1.8,9.2,4,16.3,5.6c14.1,3.2,34,2.8,53.9-3.1c2.5-0.7,4.9-1.7,7.4-2.6
			c1.2-0.4,2.4-1.1,3.6-1.6c1.2-0.6,2.4-1.1,3.6-1.8c4.7-2.6,9.1-5.7,13-9.4s7.1-8,9.5-12.8c2.3-4.8,3.7-10,3.1-15.5
			c-0.4-2.7-1.2-5.2-2.5-7.5c-1.4-2.3-3.2-4.2-5.3-5.6c-2.1-1.4-4.5-2.4-6.9-2.8s-4.8-0.2-7,0.4s-4.1,1.8-5.8,3.2
			c-1.6,1.5-2.8,3.1-3.6,4.9c-1.6,3.4-1.8,7-0.8,10c0.3,0.8,0.6,1.6,1.1,2.3c0.2,0.3,0.4,0.7,0.7,1c0.2,0.3,0.5,0.5,0.7,0.8
			c0.5,0.5,1,1,1.5,1.3s0.9,0.6,1.4,0.9c0.8,0.4,1.5,0.7,2,0.9c0.5,0.1,0.8,0.2,0.9,0.2l0,0l0,0h0.1h0.1c1.2,0.3,2.2,0,2.9-0.6
			C100,24.7,100.4,23.9,100.5,23z"/>
	</g>
	<g>
		<path class="st0" d="M141.4,29c0,0,0.7-0.4,2.2-0.9s3.6-1.3,6.5-1.7c2.9-0.5,6.4-0.7,10.5-0.3c4.1,0.3,8.6,1.3,13.4,2.8
			c4.8,1.6,9.8,3.8,14.9,6.6c2.6,1.4,5.2,2.8,7.5,4.7c2.4,1.9,4.6,4,6.4,6.5c1.8,2.5,3.3,5.3,4.2,8.4c0.9,3.1,1.2,6.3,0.8,9.6
			c-0.3,3.2-1.4,6.4-3,9.3c-1.7,2.9-3.9,5.4-6.6,7.4c-5.4,4-12.3,5.7-18.9,5c-0.8-0.1-1.6-0.2-2.4-0.4l-0.7-0.2
			c-0.2,0-0.4-0.1-0.5-0.1c-0.7-0.2-1.4-0.4-2.1-0.7c-12.9-4.6-13.8-18.4-6.4-25.7c1.1-1.1,2.1-1.9,2.8-2.4c0.7-0.6,1.1-0.9,1.1-0.9
			c1.8-1.5,4.5-0.9,5.5,0.8s0.1,3.8-1.2,4.8c-0.5,0.3-0.9,0.5-1.4,0.6c0,0-0.3,0-0.6,0.1s-0.6,0.1-0.6,0.1c-1.2,0.3-2.3,0.7-3.3,1.3
			c-0.9,0.6-1.7,1.4-2.3,2.4c-1.2,1.9-1.5,4.5-1,7s1.9,4.9,3.9,6.7s4.4,3.2,7.2,3.6c4.6,1.1,10,0.8,14.5-0.9c4.6-1.7,8.6-5,11.2-9.2
			c2.6-4.2,3.7-9.3,3.2-14.2c-0.5-5-2.8-9.7-6.1-13.6c-1.7-1.9-3.6-3.7-5.7-5.2c-1-0.8-2.1-1.5-3.3-2.2l-3.5-2
			c-4.7-2.6-9.7-4.9-14.8-6.5c-5.1-1.7-10.4-2.7-15.7-2.8c-5.3-0.1-10.6,0.8-15.3,2.9l0,0c-0.4,0.2-0.8,0.2-0.8,0
			C140.7,29.5,141,29.2,141.4,29z"/>
	</g>
	<path class="st0" d="M162.2,24.6c0,0,0.4-0.1,1.1-0.1c0.7,0,1.8-0.1,3.2-0.1s3.1,0.1,5,0.4c1,0.1,2,0.3,3,0.4
		c1.1,0.2,2.2,0.4,3.3,0.7c2.3,0.5,4.8,1.2,7.4,2.1c2.6,0.9,5.3,1.9,8,3.1c2.7,1.2,5.5,2.6,8.2,4.2c1.3,0.8,2.7,1.6,4,2.4
		c1.3,0.8,2.6,1.7,4,2.5c2.6,1.7,5.3,3.4,7.9,5c1.3,0.8,2.6,1.6,3.9,2.4c1.3,0.8,2.6,1.5,3.8,2.3c2.5,1.6,5,2.8,7.3,4.1
		c1.2,0.7,2.4,1.1,3.5,1.6s2.2,1.1,3.3,1.4c2.2,0.7,4.2,1.5,6,1.8c1.8,0.4,3.5,0.8,4.8,0.9c2.7,0.3,4.3,0.6,4.3,0.6s-1.6,0-4.3,0
		c-1.4,0-3-0.2-5-0.4c-1.9-0.1-4-0.7-6.4-1.3c-1.2-0.2-2.3-0.8-3.5-1.2c-1.2-0.5-2.5-0.9-3.7-1.5c-2.4-1.2-5.1-2.3-7.7-3.8
		c-1.3-0.7-2.6-1.5-3.9-2.2c-1.3-0.8-2.6-1.6-3.9-2.4c-2.7-1.6-5.3-3.3-8-4.9c-1.3-0.8-2.6-1.7-3.9-2.5c-1.3-0.8-2.6-1.6-3.9-2.4
		c-2.6-1.5-5.2-3-7.8-4.3c-5.2-2.6-10.3-4.5-14.7-5.9c-2.2-0.7-4.3-1.2-6.1-1.6c-1.9-0.4-3.5-0.7-4.8-0.9c-1.4-0.2-2.4-0.3-3.2-0.3
		C162.6,24.6,162.2,24.6,162.2,24.6z"/>
	<g>
		<path class="st0" d="M36,67c0,0-0.5-0.1-1.5-0.2c-0.9-0.2-2.3-0.4-3.9-0.8c-1.6-0.3-3.4-0.8-5.4-1.3c-1.9-0.6-4-1.2-6-2
			c-4.1-1.5-7.9-3.4-10.6-5.1c-2.7-1.6-4.3-2.9-4.1-2.8C4.6,54.9,4.7,55,4.8,55c0,0.1,0.1,0.2,0.1,0.2c0.1,0,0,0-0.1,0
			C4.7,55.1,4.6,55,4.5,55c-0.1-0.1-0.1-0.1-0.1-0.1c0.3,0.3,0.9,0.8,1.3,1.2c0.5,0.4,1,0.8,1.5,1.2c1.1,0.8,2.1,1.6,3.2,2.3
			c1.1,0.8,2.2,1.4,3.2,2.1c1.1,0.7,2.2,1.3,3.2,1.9c4.3,2.5,8.4,4.4,11.9,6c1.8,0.8,3.4,1.5,4.9,2.1s2.7,1.1,3.8,1.5
			c1,0.4,1.9,0.7,2.4,0.9c0.6,0.2,0.9,0.3,0.9,0.3c-0.1-0.7-0.7-1.3-1.5-2s-2-1.4-3.1-2c3.5,1.1,6.6,1.9,9.3,2.7
			c2.7,0.6,4.9,1.2,6.6,1.7c3.5,0.8,5.2,1.4,5.2,1.4c1.2-2-0.7-3.5-2.8-4.5c-1-0.5-2.1-0.8-3-1.1c-0.8-0.3-1.4-0.4-1.4-0.4
			s0.6,0,1.6,0.1c1.1,0,2.6,0,4.5,0.1c1.9,0.2,4.2,0.2,6.8,0.3c2.6,0.2,5.5,0.2,8.6,0.5c16.1,0.8,28.5-5.5,36.3-15.4
			c1.7-2.1,3.6-4.3,4.9-6c1.4-1.8,2-3,1.6-3.2c0.2-0.2-3.3,3.5-9.9,7.6c-3.3,2-7.4,4.1-11.9,6s-9.6,3.4-14.7,4.7
			C67.5,67.3,56.9,68.2,49,68c-4,0-7.2-0.4-9.5-0.5C37.3,67.1,36,67,36,67z"/>
	</g>
</g>
</svg>
