<?xml version="1.0" encoding="utf-8"?>
<!-- Generator: Adobe Illustrator 23.0.1, SVG Export Plug-In . SVG Version: 6.00 Build 0)  -->
<svg version="1.1" id="Design" xmlns="http://www.w3.org/2000/svg" xmlns:xlink="http://www.w3.org/1999/xlink" x="0px" y="0px"
	 viewBox="0 0 288 86.65" style="enable-background:new 0 0 288 86.65;" xml:space="preserve">
<style type="text/css">
	.st0{fill:url(#SVGID_1_);}
	.st1{fill:url(#SVGID_2_);}
	.st2{fill:url(#SVGID_3_);}
	.st3{fill:url(#SVGID_4_);}
	.st4{fill:url(#SVGID_5_);}
	.st5{fill:url(#SVGID_6_);}
</style>
<g>
	<g>
		
			<linearGradient id="SVGID_1_" gradientUnits="userSpaceOnUse" x1="94.2316" y1="-14.8537" x2="379.8909" y2="-14.8537" gradientTransform="matrix(0.9948 0.1021 -0.1021 0.9948 -92.2039 26.7783)">
			<stop  offset="0" style="stop-color:#E0C249"/>
			<stop  offset="0.0969" style="stop-color:#C89025"/>
			<stop  offset="0.1888" style="stop-color:#EFDA78"/>
			<stop  offset="0.4201" style="stop-color:#E0C249"/>
			<stop  offset="0.5538" style="stop-color:#C89025"/>
			<stop  offset="0.6562" style="stop-color:#E0C249"/>
			<stop  offset="0.7903" style="stop-color:#EFDA78"/>
			<stop  offset="0.9333" style="stop-color:#E5CA59"/>
			<stop  offset="1" style="stop-color:#E0C249"/>
		</linearGradient>
		<path class="st0" d="M2.87,52.13c0,0,0.67,0.35,2.02,0.93c1.33,0.62,3.35,1.46,6.02,2.47c5.35,1.9,13.52,4.39,24.25,4.59
			c5.35,0.06,11.28-0.47,17.55-1.89c6.27-1.4,12.87-3.69,19.56-6.81c6.61-3.11,13.55-6.53,20.96-9.88
			c7.41-3.32,15.3-6.66,23.83-8.75c4.25-1.03,8.69-1.73,13.16-1.63c2.24,0.02,4.48,0.3,6.67,0.81c2.19,0.5,4.35,1.26,6.37,2.33
			c4.03,2.08,7.74,5.27,10.42,9.09c1.29,1.92,2.26,4.06,2.61,6.29c0.31,2.22,0.01,4.52-0.99,6.55c-2.01,4.08-6.58,6.89-11.36,7.21
			c-4.82,0.44-9.69-1.74-13.07-5.45c-3.45-3.55-4.66-8.94-3.3-13.87c1.27-4.96,4.62-9.41,8.94-12.5c4.34-3.13,9.61-4.96,15.05-5.69
			c2.73-0.32,5.51-0.4,8.3-0.25c2.78,0.22,5.57,0.54,8.32,1.19c2.76,0.57,5.48,1.41,8.2,2.34c1.36,0.46,2.73,0.89,4.08,1.38
			l3.99,1.63l2,0.82l1.94,0.95c1.29,0.64,2.6,1.25,3.88,1.91c2.52,1.43,5.06,2.81,7.48,4.44c4.89,3.15,9.53,6.76,14.25,10.36
			c4.72,3.59,9.66,7.11,15.14,9.72c5.46,2.65,11.32,4.37,17.26,5.48c3,0.37,5.96,0.94,9.02,1.03c3.04,0.1,6.12,0.01,9.14-0.65
			c3.01-0.61,5.97-1.65,8.63-3.25c2.67-1.59,5-3.75,6.78-6.29c3.6-5.1,4.91-11.49,4.38-17.55c-0.53-6.07-2.84-12.03-6.94-16.58
			c-2.04-2.26-4.55-4.13-7.37-5.32c-2.8-1.16-5.79-1.9-8.84-1.87c-16,1.21-19.12,15.21-15.08,24.58c2.89,6.71,10.3,10.43,15.39,8.19
			c2.39-1.05,3.62-3.09,3.89-4.67c0.3-1.63-0.26-2.74-0.71-3.22c-0.21-0.26-0.48-0.39-0.6-0.48c-0.17-0.08-0.26-0.1-0.26-0.1
			c-0.81-0.24-1-0.31-1.11-0.95c-0.11-0.6-0.2-1.73-0.19-3.09c0.06-1.38,0.39-2.8,1.28-3.8c0.88-1,2.37-1.65,4.32-1.1
			c1.26,0.36,2.51,1.27,3.37,2.51c0,0,0.16,0.21,0.35,0.56c0.2,0.35,0.48,0.8,0.69,1.29c0.21,0.5,0.42,0.99,0.54,1.38
			c0.11,0.39,0.18,0.65,0.18,0.65c1.07,4.13-0.12,8.22-2.29,11.17c-2.17,2.99-5.48,5.07-9.05,5.77c-3.58,0.69-7.14-0.01-10.02-1.32
			c-2.88-1.37-5.21-3.07-7.38-5.4c-4.32-4.62-6.01-11.45-4.84-17.35c0.52-2.99,1.67-5.81,3.32-8.31c1.63-2.51,3.79-4.7,6.15-6.6
			c2.55-1.69,5.5-2.85,8.51-3.29c3.01-0.46,6.03-0.27,8.85,0.36c0.69,0.18,1.4,0.33,2.08,0.54l2.01,0.68l2.04,0.91
			c0.68,0.31,1.29,0.72,1.94,1.09c2.52,1.56,4.7,3.56,6.5,5.78c3.59,4.48,5.69,9.81,6.55,15.27c0.79,5.46,0.38,11.18-1.76,16.49
			c-2.03,5.33-6.03,10.01-10.97,12.95c-4.97,2.87-10.56,4.16-15.87,4.26c-2.66,0.07-5.33-0.07-7.85-0.41l-3.76-0.55l-1.88-0.28
			c-0.63-0.12-1.25-0.28-1.87-0.42l-3.74-0.87c-1.25-0.27-2.46-0.76-3.68-1.13c-2.48-0.72-4.83-1.8-7.2-2.82
			c-4.64-2.25-9.02-4.96-13.02-7.92c-3.99-2.95-7.77-5.98-11.55-8.82c-7.54-5.67-15.53-10.36-24.24-13.73
			c-4.38-1.61-8.82-3.22-13.23-4.13c-4.43-0.93-8.95-1.39-13.35-1.02c-2.21,0.12-4.37,0.55-6.48,1.05
			c-2.09,0.58-4.12,1.33-6.04,2.29c-3.78,1.96-7.1,4.76-9.31,8.23c-2.2,3.44-3.22,7.55-2.43,11.23c0.38,1.83,1.18,3.54,2.36,5.01
			c1.23,1.5,2.8,2.9,4.47,3.85c3.35,1.94,7.5,2.39,11.11,1.03c3.62-1.26,6.51-4.26,7.12-7.72c0.68-3.46-0.9-7.34-3.67-10.56
			c-2.79-3.28-6.35-6.02-10.29-7.63c-3.95-1.69-8.37-2.24-12.84-2.08c-4.48,0.19-9.03,1.08-13.51,2.36
			c-8.99,2.57-17.75,6.48-26.46,10.52l-13.11,6.17c-2.16,1.05-4.5,2-6.77,2.99c-1.13,0.52-2.33,0.89-3.49,1.33
			c-1.17,0.41-2.33,0.88-3.52,1.24c-4.77,1.47-9.64,2.66-14.62,3.3c-4.98,0.61-10.01,0.8-15.03,0.45c-10.03-0.78-19.8-3.68-28.73-8
			l-0.07-0.03c-1.45-0.71-2.48-1.5-2.32-1.75C0.18,51.08,1.45,51.44,2.87,52.13z"/>
	</g>
	<g>
		
			<linearGradient id="SVGID_2_" gradientUnits="userSpaceOnUse" x1="97.3637" y1="0.5961" x2="168.15" y2="0.5961" gradientTransform="matrix(0.9948 0.1021 -0.1021 0.9948 -92.2039 26.7783)">
			<stop  offset="0" style="stop-color:#E0C249"/>
			<stop  offset="0.0969" style="stop-color:#C89025"/>
			<stop  offset="0.1888" style="stop-color:#EFDA78"/>
			<stop  offset="0.4201" style="stop-color:#E0C249"/>
			<stop  offset="0.5538" style="stop-color:#C89025"/>
			<stop  offset="0.6562" style="stop-color:#E0C249"/>
			<stop  offset="0.7903" style="stop-color:#EFDA78"/>
			<stop  offset="0.9333" style="stop-color:#E5CA59"/>
			<stop  offset="1" style="stop-color:#E0C249"/>
		</linearGradient>
		<path class="st1" d="M58.95,31.23c0.08-0.22,0.88-0.17,1.65,0.37c0.03,0.04,0.73,0.4,1.61,1.47c0.86,1.05,1.75,3.04,1.42,5.52
			c-0.15,1.23-0.57,2.54-1.32,3.81c-0.74,1.27-1.81,2.5-3.27,3.41c-1.44,0.91-3.32,1.41-5.23,1.13c-1.9-0.29-3.75-1.26-5.25-2.64
			c-0.69-0.76-1.54-1.39-2.09-2.33c-0.29-0.45-0.64-0.87-0.89-1.35c-0.22-0.5-0.45-1-0.68-1.51c-0.75-2.08-0.96-4.44-0.46-6.75
			c1.01-4.62,4.78-8.68,9.63-10.22c2.44-0.73,5.06-0.87,7.63-0.49c2.58,0.44,5.05,1.6,7.09,3.29c4.09,3.36,6.71,8.62,6.7,14.01
			c0.02,2.69-0.66,5.36-1.88,7.74c-1.25,2.37-3.02,4.41-5.04,6.07c-4.08,3.34-9.01,5.23-13.8,6.43c-2.37,0.73-4.79,1.1-7.12,1.59
			c-2.37,0.3-4.67,0.7-6.95,0.78c-4.53,0.35-8.84,0.16-12.77-0.3c-3.94-0.42-7.5-1.19-10.6-2.04c-3.11-0.82-5.75-1.81-7.88-2.67
			c-4.27-1.76-6.51-3.19-6.51-3.19c0.03,0.02,0.59,0.31,1.68,0.88c1.1,0.56,2.73,1.35,4.87,2.2c2.14,0.84,4.78,1.8,7.88,2.6
			c3.1,0.82,6.65,1.56,10.58,1.96c3.92,0.43,8.21,0.59,12.72,0.22c2.26-0.09,4.55-0.5,6.9-0.81c2.32-0.5,4.72-0.89,7.08-1.63
			c4.76-1.22,9.61-3.12,13.59-6.41c1.98-1.64,3.69-3.64,4.88-5.93c1.16-2.31,1.8-4.9,1.78-7.5c-0.01-5.21-2.58-10.3-6.53-13.51
			c-1.97-1.62-4.34-2.71-6.79-3.12c-2.48-0.34-4.98-0.2-7.3,0.5c-4.62,1.49-8.17,5.37-9.09,9.71c-0.45,2.16-0.25,4.36,0.46,6.29
			c0.21,0.47,0.43,0.94,0.64,1.4c0.23,0.45,0.57,0.84,0.84,1.26c0.51,0.88,1.33,1.47,1.97,2.18c1.42,1.31,3.12,2.16,4.81,2.42
			c1.7,0.24,3.35-0.21,4.65-1.03c1.3-0.82,2.29-1.94,2.96-3.11c0.69-1.16,1.06-2.37,1.19-3.47c0.29-2.23-0.5-3.92-1.24-4.82
			c-0.76-0.92-1.38-1.23-1.41-1.27C59.41,31.92,58.84,31.5,58.95,31.23z"/>
	</g>
	<g>
		
			<linearGradient id="SVGID_3_" gradientUnits="userSpaceOnUse" x1="98.5807" y1="-11.0468" x2="210.421" y2="-11.0468" gradientTransform="matrix(0.9948 0.1021 -0.1021 0.9948 -92.2039 26.7783)">
			<stop  offset="0" style="stop-color:#E0C249"/>
			<stop  offset="0.0969" style="stop-color:#C89025"/>
			<stop  offset="0.1888" style="stop-color:#EFDA78"/>
			<stop  offset="0.4201" style="stop-color:#E0C249"/>
			<stop  offset="0.5538" style="stop-color:#C89025"/>
			<stop  offset="0.6562" style="stop-color:#E0C249"/>
			<stop  offset="0.7903" style="stop-color:#EFDA78"/>
			<stop  offset="0.9333" style="stop-color:#E5CA59"/>
			<stop  offset="1" style="stop-color:#E0C249"/>
		</linearGradient>
		<path class="st2" d="M100.56,23.1c0.02-0.95-0.31-1.88-0.78-2.57c-0.23-0.34-0.51-0.62-0.81-0.81c-0.3-0.21-0.58-0.39-0.93-0.42
			c-0.23-0.03-0.48,0-0.68,0.01c-0.19,0-0.39,0.04-0.59,0.09c-0.39,0.1-0.86,0.33-1.27,0.43c-0.43,0.12-0.97,0.27-1.53,0.26
			c-0.5-0.07-1.21-0.15-1.77-0.62c-0.1-0.1-0.64-0.63-1.12-1.85c-0.43-1.15-0.78-3-0.31-5.25c0.44-2.22,1.65-4.92,4.2-6.95
			c1.27-0.98,2.82-1.77,4.56-2.26c1.76-0.42,3.7-0.52,5.66-0.18c3.94,0.65,7.85,3.28,10.19,7.24c1.18,1.98,1.88,4.28,2.17,6.67
			c0.35,2.42-0.03,4.88-0.49,7.32c-1.16,4.85-3.54,9.52-6.7,13.69c-3.16,4.17-7.08,7.91-11.51,10.94c-4.4,3.06-9.17,5.67-14.17,7.59
			c-9.95,4-20.37,5.98-30.08,7c-9.73,1.02-18.86,0.54-26.49-0.75c-7.65-1.24-13.74-3.5-17.85-5.29c-2.05-0.92-3.62-1.72-4.67-2.25
			c-1.08-0.55-1.51-0.71-1.55-0.71c0.01,0.04,0.38,0.24,1.32,0.78c0.91,0.53,2.33,1.31,4.17,2.23c3.69,1.82,9.24,4.02,16.29,5.57
			c14.11,3.15,34.03,2.81,53.91-3.13c2.51-0.67,4.92-1.72,7.39-2.65c1.24-0.43,2.41-1.08,3.61-1.63c1.18-0.6,2.42-1.1,3.56-1.78
			c4.68-2.56,9.07-5.72,12.97-9.39c3.9-3.67,7.15-8.03,9.49-12.79c2.33-4.75,3.72-10,3.15-15.49c-0.36-2.68-1.2-5.25-2.54-7.54
			c-1.35-2.29-3.21-4.21-5.31-5.64c-2.11-1.43-4.47-2.37-6.86-2.78c-2.4-0.39-4.83-0.2-7.04,0.43c-2.24,0.62-4.15,1.75-5.79,3.16
			c-1.65,1.48-2.81,3.15-3.57,4.86c-1.56,3.4-1.81,7.04-0.78,10.02c0.33,0.82,0.61,1.61,1.1,2.27c0.23,0.33,0.44,0.66,0.66,0.97
			c0.24,0.29,0.5,0.54,0.75,0.79c0.49,0.52,0.98,0.95,1.48,1.25c0.49,0.32,0.94,0.65,1.36,0.86c0.85,0.38,1.54,0.67,2.04,0.87
			c0.5,0.13,0.81,0.2,0.93,0.24h0h0c0.02,0.01,0.08,0.02,0.08,0.02l0.09,0.01c1.15,0.29,2.19-0.04,2.91-0.59
			C100.13,24.82,100.54,24.02,100.56,23.1z"/>
	</g>
	<g>
		
			<linearGradient id="SVGID_4_" gradientUnits="userSpaceOnUse" x1="232.1717" y1="2.6448" x2="302.3952" y2="2.6448" gradientTransform="matrix(0.9948 0.1021 -0.1021 0.9948 -92.2039 26.7783)">
			<stop  offset="0" style="stop-color:#E0C249"/>
			<stop  offset="0.0969" style="stop-color:#C89025"/>
			<stop  offset="0.1888" style="stop-color:#EFDA78"/>
			<stop  offset="0.4201" style="stop-color:#E0C249"/>
			<stop  offset="0.5538" style="stop-color:#C89025"/>
			<stop  offset="0.6562" style="stop-color:#E0C249"/>
			<stop  offset="0.7903" style="stop-color:#EFDA78"/>
			<stop  offset="0.9333" style="stop-color:#E5CA59"/>
			<stop  offset="1" style="stop-color:#E0C249"/>
		</linearGradient>
		<path class="st3" d="M141.46,29.16c0,0,0.73-0.38,2.19-0.92c1.45-0.53,3.62-1.26,6.5-1.7c2.86-0.47,6.42-0.69,10.48-0.34
			c4.06,0.34,8.6,1.26,13.4,2.82c4.8,1.57,9.83,3.81,14.94,6.59c2.56,1.41,5.16,2.83,7.51,4.7c2.36,1.85,4.56,4.02,6.39,6.53
			c1.83,2.5,3.28,5.35,4.18,8.41c0.87,3.06,1.16,6.32,0.84,9.56c-0.35,3.24-1.4,6.42-3,9.31c-1.66,2.85-3.88,5.41-6.55,7.41
			c-5.36,3.98-12.33,5.66-18.9,4.98c-0.82-0.1-1.64-0.19-2.44-0.39l-0.74-0.15c-0.18-0.03-0.36-0.08-0.53-0.14
			c-0.7-0.22-1.42-0.38-2.09-0.68c-12.87-4.64-13.83-18.37-6.44-25.73c1.08-1.12,2.12-1.91,2.83-2.45c0.71-0.57,1.12-0.86,1.12-0.86
			c1.78-1.47,4.53-0.92,5.46,0.78c0.96,1.67,0.13,3.81-1.23,4.75c-0.46,0.32-0.91,0.54-1.39,0.57c0,0-0.34,0.02-0.65,0.1
			c-0.32,0.06-0.64,0.12-0.64,0.12c-1.21,0.29-2.35,0.7-3.29,1.34c-0.94,0.64-1.72,1.45-2.31,2.41c-1.19,1.92-1.53,4.51-0.95,6.99
			c0.53,2.5,1.95,4.86,3.88,6.7c1.97,1.81,4.44,3.17,7.24,3.62c4.64,1.13,9.97,0.78,14.55-0.95c4.61-1.71,8.62-4.95,11.2-9.15
			c2.6-4.18,3.73-9.27,3.16-14.22c-0.53-4.96-2.76-9.7-6.12-13.56c-1.67-1.93-3.56-3.72-5.69-5.22c-1.04-0.79-2.14-1.46-3.28-2.17
			l-3.53-2.02c-4.75-2.58-9.66-4.86-14.76-6.52c-5.1-1.66-10.38-2.7-15.67-2.82c-5.28-0.13-10.59,0.79-15.33,2.94l-0.02,0.01
			c-0.38,0.17-0.76,0.17-0.85-0.01C140.82,29.63,141.07,29.34,141.46,29.16z"/>
	</g>
	
		<linearGradient id="SVGID_5_" gradientUnits="userSpaceOnUse" x1="252.9757" y1="-15.0696" x2="348.2013" y2="-15.0696" gradientTransform="matrix(0.9948 0.1021 -0.1021 0.9948 -92.2039 26.7783)">
		<stop  offset="0" style="stop-color:#E0C249"/>
		<stop  offset="0.0969" style="stop-color:#C89025"/>
		<stop  offset="0.1888" style="stop-color:#EFDA78"/>
		<stop  offset="0.4201" style="stop-color:#E0C249"/>
		<stop  offset="0.5538" style="stop-color:#C89025"/>
		<stop  offset="0.6562" style="stop-color:#E0C249"/>
		<stop  offset="0.7903" style="stop-color:#EFDA78"/>
		<stop  offset="0.9333" style="stop-color:#E5CA59"/>
		<stop  offset="1" style="stop-color:#E0C249"/>
	</linearGradient>
	<path class="st4" d="M162.32,24.73c0,0,0.39-0.06,1.13-0.11c0.74-0.05,1.82-0.12,3.2-0.07c1.38,0.03,3.05,0.15,4.97,0.35
		c0.96,0.13,1.97,0.27,3.04,0.42c1.06,0.2,2.18,0.4,3.34,0.66c2.32,0.53,4.81,1.19,7.39,2.07c2.58,0.87,5.28,1.89,7.98,3.13
		c2.71,1.23,5.46,2.61,8.17,4.16c1.34,0.8,2.69,1.62,4.04,2.43c1.32,0.83,2.64,1.66,3.97,2.5c2.63,1.7,5.26,3.4,7.87,5.01
		c1.3,0.82,2.58,1.64,3.86,2.45c1.29,0.77,2.56,1.53,3.81,2.28c2.48,1.55,4.97,2.81,7.31,4.1c1.16,0.66,2.38,1.08,3.5,1.62
		c1.14,0.49,2.21,1.08,3.33,1.39c2.2,0.7,4.18,1.5,6.05,1.83c1.84,0.42,3.45,0.84,4.82,0.94c2.71,0.35,4.27,0.59,4.27,0.59
		s-1.56,0.02-4.32-0.02c-1.39,0.04-3.04-0.21-4.96-0.43c-1.95-0.13-4.05-0.72-6.37-1.3c-1.18-0.24-2.32-0.75-3.53-1.17
		c-1.2-0.47-2.48-0.87-3.71-1.46c-2.45-1.18-5.11-2.33-7.65-3.83c-1.29-0.72-2.61-1.45-3.94-2.19c-1.3-0.78-2.61-1.58-3.94-2.38
		c-2.65-1.61-5.31-3.27-7.95-4.95c-1.32-0.85-2.63-1.7-3.95-2.55c-1.31-0.81-2.62-1.61-3.92-2.41c-2.64-1.52-5.24-3.01-7.85-4.28
		c-5.2-2.58-10.26-4.54-14.71-5.9c-2.23-0.66-4.29-1.21-6.14-1.63c-1.85-0.39-3.49-0.68-4.84-0.85c-1.35-0.17-2.42-0.29-3.16-0.33
		C162.71,24.73,162.32,24.73,162.32,24.73z"/>
	<g>
		
			<linearGradient id="SVGID_6_" gradientUnits="userSpaceOnUse" x1="99.084" y1="16.3262" x2="207.8622" y2="16.3262" gradientTransform="matrix(0.9948 0.1021 -0.1021 0.9948 -92.2039 26.7783)">
			<stop  offset="0" style="stop-color:#E0C249"/>
			<stop  offset="0.0969" style="stop-color:#C89025"/>
			<stop  offset="0.1888" style="stop-color:#EFDA78"/>
			<stop  offset="0.4201" style="stop-color:#E0C249"/>
			<stop  offset="0.5538" style="stop-color:#C89025"/>
			<stop  offset="0.6562" style="stop-color:#E0C249"/>
			<stop  offset="0.7903" style="stop-color:#EFDA78"/>
			<stop  offset="0.9333" style="stop-color:#E5CA59"/>
			<stop  offset="1" style="stop-color:#E0C249"/>
		</linearGradient>
		<path class="st5" d="M36.13,67.08c0,0-0.54-0.07-1.49-0.2c-0.94-0.18-2.27-0.44-3.88-0.76c-1.62-0.28-3.43-0.85-5.42-1.32
			c-1.94-0.62-4.04-1.2-6.04-2c-4.06-1.5-7.93-3.41-10.64-5.06c-2.73-1.63-4.28-2.94-4.12-2.81C4.6,55,4.72,55.1,4.81,55.17
			c0.09,0.07,0.14,0.12,0.17,0.14c0.06,0.05,0.02,0.02-0.06-0.05c-0.08-0.06-0.19-0.16-0.29-0.24c-0.06-0.05-0.11-0.1-0.11-0.1
			c0.29,0.29,0.86,0.77,1.33,1.16c0.52,0.41,1.03,0.81,1.54,1.21c1.06,0.78,2.12,1.56,3.2,2.28c1.05,0.77,2.18,1.41,3.24,2.12
			c1.1,0.66,2.17,1.3,3.23,1.94c4.27,2.47,8.4,4.39,11.93,6.04c1.79,0.76,3.42,1.46,4.87,2.07c1.46,0.57,2.73,1.06,3.78,1.46
			c1.05,0.43,1.87,0.75,2.43,0.93c0.56,0.2,0.86,0.31,0.86,0.31c-0.11-0.66-0.69-1.33-1.54-1.96c-0.85-0.67-1.95-1.35-3.12-1.96
			c3.52,1.15,6.63,1.86,9.28,2.65c2.66,0.62,4.87,1.24,6.63,1.71c3.52,0.82,5.22,1.41,5.22,1.41c1.2-2.03-0.69-3.49-2.77-4.45
			c-1.04-0.49-2.15-0.83-2.99-1.08c-0.84-0.29-1.43-0.43-1.43-0.43s0.58,0.03,1.65,0.07c1.06,0,2.6,0.03,4.52,0.13
			c1.92,0.16,4.22,0.15,6.81,0.31c2.6,0.22,5.46,0.24,8.56,0.48c16.08,0.85,28.51-5.51,36.28-15.41c1.69-2.11,3.62-4.29,4.95-6.04
			c1.35-1.75,2.04-3.04,1.55-3.21c0.24-0.22-3.31,3.49-9.95,7.58c-3.32,2.03-7.39,4.12-11.92,6c-4.52,1.92-9.57,3.42-14.67,4.74
			c-10.26,2.42-20.93,3.28-28.8,3.14c-3.96,0.01-7.22-0.39-9.51-0.55C37.42,67.26,36.13,67.08,36.13,67.08z"/>
	</g>
</g>
</svg>
